<?xml version="1.0" encoding="UTF-8"?>
<svg version="1.1" xmlns="http://www.w3.org/2000/svg" width="100" height="100">
<path d="M0 0 C33 0 66 0 100 0 C100 33 100 66 100 100 C67 100 34 100 0 100 C0 67 0 34 0 0 Z " fill="#F2F2F2" transform="translate(0,0)"/>
<path d="M0 0 C7.53666766 0.36467747 15.27720986 1.95794664 20.6139679 7.75238037 C22.32134447 10.52109914 22.36326689 12.17392357 22.34057617 15.41113281 C22.34021362 16.50699707 22.33985107 17.60286133 22.33947754 18.73193359 C22.32412964 19.87742676 22.30878174 21.02291992 22.29296875 22.203125 C22.28994751 23.26063965 22.28692627 24.3181543 22.28381348 25.40771484 C22.26812625 29.35524261 22.22624227 33.30263118 22.1875 37.25 C22.125625 46.0775 22.06375 54.905 22 64 C-11 64 -44 64 -78 64 C-78.103125 55.193125 -78.20625 46.38625 -78.3125 37.3125 C-78.38078003 33.1520105 -78.38078003 33.1520105 -78.45043945 28.9074707 C-78.46504459 26.70525319 -78.47778519 24.50302218 -78.48828125 22.30078125 C-78.51386108 21.16040405 -78.53944092 20.02002686 -78.5657959 18.84509277 C-78.5702549 10.75914559 -78.5702549 10.75914559 -75.62963867 6.84448242 C-74.76185791 6.23580322 -73.89407715 5.62712402 -73 5 C-71.7315625 4.1028125 -71.7315625 4.1028125 -70.4375 3.1875 C-68 2 -68 2 -64 2 C-64.36405249 4.70438996 -64.68142682 5.74406383 -66.84765625 7.484375 C-67.57855469 7.90203125 -68.30945313 8.3196875 -69.0625 8.75 C-69.79597656 9.17796875 -70.52945313 9.6059375 -71.28515625 10.046875 C-71.85105469 10.36140625 -72.41695313 10.6759375 -73 11 C-72.82757851 13.41955635 -72.82757851 13.41955635 -72 16 C-57.54683601 27.67370938 -30.55717839 26.21817392 -13.19921875 24.765625 C-3.10877562 23.62951585 7.35613248 22.20008746 15.6875 16 C17.14647236 14.11705596 17.14647236 14.11705596 17.1875 12 C13.88392491 6.43608405 5.83891751 4.7477032 0 3 C0 2.01 0 1.02 0 0 Z " fill="#020202" transform="translate(78,36)"/>
<path d="M0 0 C0.99 0.33 1.98 0.66 3 1 C3.9140625 3.14453125 3.9140625 3.14453125 4.625 5.8125 C4.86476563 6.68519531 5.10453125 7.55789062 5.3515625 8.45703125 C5.90731783 10.63652958 6.46046966 12.81642909 7 15 C8.051875 13.88625 8.051875 13.88625 9.125 12.75 C13.1934727 8.85841742 16.48171834 5.81168329 22.25 5.375 C32.13185705 5.88812826 40.49144718 14.24151875 47 21 C52.18059453 27.07707012 56.53794589 33.61968862 60.5625 40.5 C60.90941895 41.08740967 61.25633789 41.67481934 61.61376953 42.2800293 C63.46357538 45.55914439 64 47.12011235 64 51 C62.52484445 51.63440928 61.04456668 52.25690827 59.5625 52.875 C58.32693359 53.39707031 58.32693359 53.39707031 57.06640625 53.9296875 C44.73224798 58.23485867 28.5562688 59.73392311 16.1875 55 C9.7721452 51.71815665 3.24298044 47.15815772 -0.0625 40.5625 C-1.62424783 34.62785826 -2.16696716 30.10054089 0.875 24.625 C1.57625 23.75875 2.2775 22.8925 3 22 C3.66 21.01 4.32 20.02 5 19 C4.566875 18.20335938 4.13375 17.40671875 3.6875 16.5859375 C3.130625 15.52632812 2.57375 14.46671875 2 13.375 C1.443125 12.33085937 0.88625 11.28671875 0.3125 10.2109375 C-1.06464909 6.84184062 -1.3378032 4.59971538 -1 1 C-0.67 0.67 -0.34 0.34 0 0 Z " fill="#040404" transform="translate(17,0)"/>
<path d="M0 0 C5.61 0 11.22 0 17 0 C17 2.31 17 4.62 17 7 C18.25544344 10.55947268 18.25544344 10.55947268 20 13.9375 C20.556875 15.08089844 21.11375 16.22429688 21.6875 17.40234375 C22.120625 18.25957031 22.55375 19.11679687 23 20 C21.09570312 22.24609375 21.09570312 22.24609375 19.19140625 24.4921875 C17.08188957 27.16193648 16.77025624 29.29743759 16.4375 32.625 C16.31181641 33.85089844 16.31181641 33.85089844 16.18359375 35.1015625 C16.12300781 35.72804687 16.06242187 36.35453125 16 37 C15.02160156 37.34611328 15.02160156 37.34611328 14.0234375 37.69921875 C12.71246094 38.18841797 12.71246094 38.18841797 11.375 38.6875 C10.51648437 39.00074219 9.65796875 39.31398437 8.7734375 39.63671875 C5.22747814 41.24449427 5.22747814 41.24449427 0 46 C0 30.82 0 15.64 0 0 Z " fill="#F5F5F5" transform="translate(0,0)"/>
<path d="M0 0 C0.33 0 0.66 0 1 0 C1.20753906 0.94359375 1.41507812 1.8871875 1.62890625 2.859375 C4.68911615 15.92082955 10.27598642 28.95502885 21.75 36.75 C28.29287065 40.55312175 35.53825788 42.18894107 43 43 C43 43.33 43 43.66 43 44 C28.81 44 14.62 44 0 44 C0 29.48 0 14.96 0 0 Z " fill="#F1F1F1" transform="translate(0,56)"/>
<path d="M0 0 C0.33 0 0.66 0 1 0 C1 14.52 1 29.04 1 44 C-12.2 44 -25.4 44 -39 44 C-35.66432417 42.33216209 -32.79122536 41.29585412 -29.25 40.25 C-17.00703185 36.13933069 -10.31107643 27.54928959 -4.61328125 16.25 C-2.39246396 10.96627114 -1.08729166 5.61767356 0 0 Z " fill="#F2F2F2" transform="translate(99,56)"/>
<path d="M0 0 C1.4540625 1.2375 1.4540625 1.2375 2.9375 2.5 C3.58332031 3.04914062 4.22914062 3.59828125 4.89453125 4.1640625 C6.29101186 5.38177286 7.6641796 6.62677919 9.01171875 7.8984375 C15.12699202 13.61808311 21.80208543 17.79500069 29 22 C30.66766008 22.99834245 32.33469542 23.99773335 34 25 C33.67 26.32 33.34 27.64 33 29 C20.86725847 24.67522701 8.31746442 15.79144545 0 6 C-0.87890625 3.23828125 -0.87890625 3.23828125 -1 1 C-0.67 0.67 -0.34 0.34 0 0 Z " fill="#E6E6E6" transform="translate(25,17)"/>
<path d="M0 0 C0.99 0.33 1.98 0.66 3 1 C3.9140625 3.14453125 3.9140625 3.14453125 4.625 5.8125 C4.86476563 6.68519531 5.10453125 7.55789062 5.3515625 8.45703125 C5.90731783 10.63652958 6.46046966 12.81642909 7 15 C7.66 15 8.32 15 9 15 C7.68206814 20.66710699 5.51290803 22.66437233 1 26 C2.20381448 23.50638429 3.45428722 21.31856917 5 19 C4.566875 18.20335938 4.13375 17.40671875 3.6875 16.5859375 C3.130625 15.52632812 2.57375 14.46671875 2 13.375 C1.443125 12.33085937 0.88625 11.28671875 0.3125 10.2109375 C-1.06464909 6.84184062 -1.3378032 4.59971538 -1 1 C-0.67 0.67 -0.34 0.34 0 0 Z " fill="#161616" transform="translate(17,0)"/>
<path d="M0 0 C-0.37245844 2.56886775 -0.67846237 3.72128397 -2.671875 5.44921875 C-9.62002808 9.58937763 -9.62002808 9.58937763 -14 10 C-13.0862692 6.00242773 -11.45041694 4.35087533 -8.125 2.1875 C-4.92832315 0.21236696 -3.97587624 0 0 0 Z " fill="#121212" transform="translate(14,38)"/>
<path d="M0 0 C1.32 1.32 2.64 2.64 4 4 C3.34 5.32 2.68 6.64 2 8 C0.4375 6.25 0.4375 6.25 -1 4 C-0.6875 1.75 -0.6875 1.75 0 0 Z " fill="#E3E3E3" transform="translate(25,17)"/>
<path d="M0 0 C2.475 0.99 2.475 0.99 5 2 C5 2.99 5 3.98 5 5 C2.5625 4.625 2.5625 4.625 0 4 C-0.33 3.34 -0.66 2.68 -1 2 C-0.67 1.34 -0.34 0.68 0 0 Z " fill="#EFEFEF" transform="translate(42,33)"/>
</svg>
